# Apple ModelIO OBJ File: pyramid
mtllib pyramid.mtl
g 
v -0.5 0 0.5
v 0.5 0 0.5
v 0 1 0
vn 0 0.447214 0.894427
vt 0 0
vt 1 0
vt 1 1
usemtl material_1
f 1/1/1 2/2/1 3/3/1
s off
g _1
v 0.5 0 0.5
v 0.5 0 -0.5
v 0 1 0
vn 0.894427 0.447214 -3.90967e-08
vt 0 0
vt 1 0
vt 1 1
usemtl material_2
f 4/4/2 5/5/2 6/6/2
s off
g _2
v 0.5 0 -0.5
v -0.5 0 -0.5
v 0 1 0
vn -7.81933e-08 0.447214 -0.894427
vt 0 0
vt 1 0
vt 1 1
usemtl material_3
f 7/7/3 8/8/3 9/9/3
s off
g _3
v -0.5 0 -0.5
v -0.5 0 0.5
v 0 1 0
vn -0.894427 0.447214 1.06659e-08
vt 0 0
vt 1 0
vt 1 1
usemtl material_4
f 10/10/4 11/11/4 12/12/4
s off
g _4
v -0.5 2.18557e-08 -0.5
v 0.5 2.18557e-08 -0.5
v 0.5 -2.18557e-08 0.5
v -0.5 -2.18557e-08 0.5
vn 0 -1 -4.37114e-08
vt 0 0
vt 1 0
vt 1 1
vt 0 1
usemtl material_5
f 13/13/5 14/14/5 15/15/5
f 13/13/5 15/15/5 16/16/5
s off
